# xmcd CD Database Entry
#
# Track frame offsets:
# 150
# 15547
# 27182
# 40817
# 53602
# 67511
# 81745
# 91667
# 106251
# 118935
# 129929
# 142354
# 156305
# 169683
#
# Disc length: 2449 seconds
#
# Revision: 1
# Processed by: cddbd v1.4PL0 Copyright (c) Steve Scherf et al.
# Submitted via: tcd 2.0b
#
DISCID=b1098f0e
DTITLE=Muddy Waters - Blues Legend Cd1
DYEAR=1900
DGENRE=
TTITLE0=They Call Me Muddy Waters
TTITLE1=Last Time I Fool Around With You
TTITLE2=Sad Letter Blues
TTITLE3=Appealing Blues
TTITLE4=Where's My Woman Been
TTITLE5=Early Morning Blues
TTITLE6=Evans Shuffle
TTITLE7=Too Young To Know
TTITLE8=Little Geneva
TTITLE9=Stand There Trembling
TTITLE10=Canary Bird
TTITLE11=Screamin' And Cryin'
TTITLE12=Walkin' Blues
TTITLE13=You Gonna Need My Help
EXTD=
EXTT0=
EXTT1=
EXTT2=
EXTT3=
EXTT4=
EXTT5=
EXTT6=
EXTT7=
EXTT8=
EXTT9=
EXTT10=
EXTT11=
EXTT12=
EXTT13=
PLAYORDER=
